<svg width="17" height="16" viewBox="0 0 17 16" fill="none" xmlns="http://www.w3.org/2000/svg">
<path d="M16.8889 15C16.8889 15.5523 16.4412 16 15.8889 16H0.999999C0.447714 16 0 15.5523 0 15V7.93954C0 7.40911 0.210714 6.9004 0.585786 6.52532L7.11111 0H16C16.2357 0 16.4618 0.0936505 16.6285 0.260349C16.7952 0.427048 16.8889 0.653141 16.8889 0.888889V15ZM8.056 1.77778C7.92339 1.77778 7.79621 1.83046 7.70244 1.92422L3.36911 6.25756C3.05413 6.57254 3.27721 7.11111 3.72266 7.11111H14.6111C14.8873 7.11111 15.1111 6.88725 15.1111 6.61111V2.27778C15.1111 2.00164 14.8873 1.77778 14.6111 1.77778H8.056Z" fill="#142E6B"/>
</svg>
