<svg width="16" height="24" viewBox="0 0 12 12" fill="none" xmlns="http://www.w3.org/2000/svg">
<path fill-rule="evenodd" clip-rule="evenodd" d="M6 12C9.3138 12 12 9.3138 12 6C12 2.6862 9.3138 0 6 0C2.6862 0 0 2.6862 0 6C0 9.3138 2.6862 12 6 12ZM9.5724 6.45H7.743C7.66123 6.76664 7.49465 7.05498 7.2612 7.284L8.1756 8.868C8.55785 8.57842 8.87834 8.21533 9.11822 7.80008C9.3581 7.38483 9.51252 6.9258 9.5724 6.45ZM7.3968 9.3192L6.4818 7.7352C6.16655 7.82262 5.83345 7.82262 5.5182 7.7352L4.6032 9.3192C5.04535 9.50523 5.52031 9.60071 6 9.6C6.495 9.6 6.9672 9.4998 7.3968 9.3192ZM3.8244 8.8686L4.7388 7.2846C4.50504 7.05549 4.33824 6.76692 4.2564 6.45H2.4276C2.48745 6.92581 2.64186 7.38485 2.88174 7.8001C3.12162 8.21536 3.44212 8.57904 3.8244 8.8686ZM9.5724 5.5494H7.743C7.66123 5.23276 7.49465 4.94442 7.2612 4.7154L8.1756 3.1314C8.55785 3.42098 8.87834 3.78407 9.11822 4.19932C9.3581 4.61457 9.51252 5.0736 9.5724 5.5494ZM7.3968 2.6802C6.9546 2.49441 6.47965 2.39913 6 2.4C5.505 2.4 5.0328 2.5002 4.6032 2.6808L5.5182 4.2648C5.83344 4.17729 6.16656 4.17729 6.4818 4.2648L7.3968 2.6802ZM4.7388 4.716L3.8244 3.132C3.44215 3.42158 3.12166 3.78467 2.88178 4.19992C2.6419 4.61517 2.48748 5.0742 2.4276 5.55H4.257C4.3398 5.229 4.509 4.9422 4.7388 4.716Z" fill="#142E6B"/>
</svg>
