<svg width="16" height="24" viewBox="0 0 12 12" fill="none" xmlns="http://www.w3.org/2000/svg">
<g clip-path="url(#clip0_4_306)">
<path d="M0.75 1.5C0.75 1.10218 0.908035 0.720644 1.18934 0.43934C1.47064 0.158035 1.85218 0 2.25 0L6.75 0C7.14782 0 7.52936 0.158035 7.81066 0.43934C8.09196 0.720644 8.25 1.10218 8.25 1.5V7.5C8.64782 7.5 9.02936 7.65804 9.31066 7.93934C9.59196 8.22064 9.75 8.60218 9.75 9V9.375C9.75 9.47446 9.78951 9.56984 9.85983 9.64017C9.93016 9.71049 10.0255 9.75 10.125 9.75C10.2245 9.75 10.3198 9.71049 10.3902 9.64017C10.4605 9.56984 10.5 9.47446 10.5 9.375V6H10.125C10.0255 6 9.93016 5.96049 9.85983 5.89016C9.78951 5.81984 9.75 5.72446 9.75 5.625V3.28125C9.75 3.18179 9.78951 3.08641 9.85983 3.01609C9.93016 2.94576 10.0255 2.90625 10.125 2.90625H11.2462C11.238 2.54925 11.2065 2.23575 11.0955 1.98975C11.0361 1.84671 10.9326 1.72637 10.8 1.64625C10.662 1.56375 10.452 1.5 10.125 1.5C10.0255 1.5 9.93016 1.46049 9.85983 1.39017C9.78951 1.31984 9.75 1.22446 9.75 1.125C9.75 1.02554 9.78951 0.930161 9.85983 0.859835C9.93016 0.789509 10.0255 0.75 10.125 0.75C10.548 0.749 10.901 0.833 11.184 1.002C11.4712 1.173 11.6595 1.41525 11.7795 1.68225C12.0008 2.1735 12 2.781 12 3.243V5.625C12 5.72446 11.9605 5.81984 11.8902 5.89016C11.8198 5.96049 11.7245 6 11.625 6H11.25V9.375C11.25 9.67337 11.1315 9.95952 10.9205 10.1705C10.7095 10.3815 10.4234 10.5 10.125 10.5C9.82663 10.5 9.54048 10.3815 9.3295 10.1705C9.11853 9.95952 9 9.67337 9 9.375V9C9 8.80109 8.92098 8.61032 8.78033 8.46967C8.63968 8.32902 8.44891 8.25 8.25 8.25V11.25H8.625C8.72446 11.25 8.81984 11.2895 8.89017 11.3598C8.96049 11.4302 9 11.5255 9 11.625C9 11.7245 8.96049 11.8198 8.89017 11.8902C8.81984 11.9605 8.72446 12 8.625 12H0.375C0.275544 12 0.180161 11.9605 0.109835 11.8902C0.0395088 11.8198 0 11.7245 0 11.625C0 11.5255 0.0395088 11.4302 0.109835 11.3598C0.180161 11.2895 0.275544 11.25 0.375 11.25H0.75V1.5ZM2.625 1.5C2.52554 1.5 2.43016 1.53951 2.35984 1.60984C2.28951 1.68016 2.25 1.77554 2.25 1.875V5.625C2.25 5.72446 2.28951 5.81984 2.35984 5.89016C2.43016 5.96049 2.52554 6 2.625 6H6.375C6.47446 6 6.56984 5.96049 6.64017 5.89016C6.71049 5.81984 6.75 5.72446 6.75 5.625V1.875C6.75 1.77554 6.71049 1.68016 6.64017 1.60984C6.56984 1.53951 6.47446 1.5 6.375 1.5H2.625Z" fill="#142E6B"/>
</g>
<defs>
<clipPath id="clip0_4_306">
<rect width="12" height="12" fill="white"/>
</clipPath>
</defs>
</svg>
