<svg width="16" height="16" viewBox="0 0 16 16" fill="none" xmlns="http://www.w3.org/2000/svg">
<g clip-path="url(#clip0_59_21)">
<path d="M0 8C0 5.87827 0.842855 3.84344 2.34315 2.34315C3.84344 0.842855 5.87827 0 8 0C10.1217 0 12.1566 0.842855 13.6569 2.34315C15.1571 3.84344 16 5.87827 16 8C16 10.1217 15.1571 12.1566 13.6569 13.6569C12.1566 15.1571 10.1217 16 8 16C5.87827 16 3.84344 15.1571 2.34315 13.6569C0.842855 12.1566 0 10.1217 0 8ZM10 11C10 10.5031 9.81875 10.05 9.52188 9.7L11.9156 5.09375C12.1062 4.725 11.9625 4.27188 11.5969 4.08125C11.2313 3.89063 10.7781 4.03438 10.5844 4.4L8.19063 9.00937C8.12813 9.00312 8.06562 9 8 9C6.89688 9 6 9.89688 6 11C6 12.1031 6.89688 13 8 13C9.10312 13 10 12.1031 10 11Z" fill="#142E6B"/>
</g>
<defs>
<clipPath id="clip0_59_21">
<rect width="16" height="16" fill="white"/>
</clipPath>
</defs>
</svg>
