<svg width="20" height="18" viewBox="0 0 20 18" fill="none" xmlns="http://www.w3.org/2000/svg">
<path d="M3 5C2.46957 5 1.96086 4.78929 1.58579 4.41421C1.21071 4.03914 1 3.53043 1 3C1 2.46957 1.21071 1.96086 1.58579 1.58579C1.96086 1.21071 2.46957 1 3 1C3.53043 1 4.03914 1.21071 4.41421 1.58579C4.78929 1.96086 5 2.46957 5 3C5 3.53043 4.78929 4.03914 4.41421 4.41421C4.03914 4.78929 3.53043 5 3 5ZM3 5V13M10 5C9.46957 5 8.96086 4.78929 8.58579 4.41421C8.21071 4.03914 8 3.53043 8 3C8 2.46957 8.21071 1.96086 8.58579 1.58579C8.96086 1.21071 9.46957 1 10 1C10.5304 1 11.0391 1.21071 11.4142 1.58579C11.7893 1.96086 12 2.46957 12 3C12 3.53043 11.7893 4.03914 11.4142 4.41421C11.0391 4.78929 10.5304 5 10 5ZM10 5V13M3 13C3.53043 13 4.03914 13.2107 4.41421 13.5858C4.78929 13.9609 5 14.4696 5 15C5 15.5304 4.78929 16.0391 4.41421 16.4142C4.03914 16.7893 3.53043 17 3 17C2.46957 17 1.96086 16.7893 1.58579 16.4142C1.21071 16.0391 1 15.5304 1 15C1 14.4696 1.21071 13.9609 1.58579 13.5858C1.96086 13.2107 2.46957 13 3 13ZM10 13C10.5304 13 11.0391 13.2107 11.4142 13.5858C11.7893 13.9609 12 14.4696 12 15C12 15.5304 11.7893 16.0391 11.4142 16.4142C11.0391 16.7893 10.5304 17 10 17C9.46957 17 8.96086 16.7893 8.58579 16.4142C8.21071 16.0391 8 15.5304 8 15C8 14.4696 8.21071 13.9609 8.58579 13.5858C8.96086 13.2107 9.46957 13 10 13ZM15 3C15 3.53043 15.2107 4.03914 15.5858 4.41421C15.9609 4.78929 16.4696 5 17 5C17.5304 5 18.0391 4.78929 18.4142 4.41421C18.7893 4.03914 19 3.53043 19 3C19 2.46957 18.7893 1.96086 18.4142 1.58579C18.0391 1.21071 17.5304 1 17 1C16.4696 1 15.9609 1.21071 15.5858 1.58579C15.2107 1.96086 15 2.46957 15 3Z" stroke="#142E6B" stroke-width="1.5" stroke-linecap="round" stroke-linejoin="round"/>
<path d="M17 5V7C17 7.53043 16.7893 8.03914 16.4142 8.41421C16.0391 8.78929 15.5304 9 15 9H3" stroke="#142E6B" stroke-width="1.5" stroke-linecap="round" stroke-linejoin="round"/>
</svg>
