<svg width="16" height="24" viewBox="0 0 14 11" fill="none" xmlns="http://www.w3.org/2000/svg">
<rect x="0.5" y="0.5" width="13" height="10" rx="1.5" stroke="#142E6B"/>
<path d="M9.51897 6.5095C9.41031 6.5095 9.31897 6.482 9.24497 6.427C9.17164 6.3715 9.13497 6.30287 9.13497 6.22112V4.77887C9.13497 4.69712 9.17164 4.62862 9.24497 4.57337C9.31897 4.51812 9.41031 4.4905 9.51897 4.4905H10.9425C11.0515 4.4905 11.1428 4.518 11.2165 4.573C11.2898 4.6285 11.3265 4.69712 11.3265 4.77887V5.125H10.8845V4.822H9.57697V6.178H10.8845V5.875H11.327V6.22112C11.327 6.30287 11.2901 6.37137 11.2165 6.42662C11.1428 6.48187 11.0515 6.5095 10.9425 6.5095H9.51897ZM5.90397 6.5095V4.4905H7.71147C7.82047 4.4905 7.91181 4.518 7.98547 4.573C8.05914 4.6285 8.09597 4.69712 8.09597 4.77887V5.24012C8.09597 5.31287 8.07381 5.37075 8.02947 5.41375C7.98481 5.45675 7.91081 5.4855 7.80747 5.5C7.91081 5.5145 7.98481 5.54325 8.02947 5.58625C8.07381 5.62925 8.09597 5.687 8.09597 5.7595V6.22112C8.09597 6.30287 8.05931 6.37137 7.98597 6.42662C7.91197 6.48187 7.82047 6.5095 7.71147 6.5095H5.90397ZM6.34597 5.33425H7.65397V4.822H6.34597V5.33425ZM6.34597 6.178H7.65397V5.66575H6.34597V6.178ZM2.67297 6.5095V4.77887C2.67297 4.69712 2.70981 4.62862 2.78347 4.57337C2.85714 4.51812 2.94847 4.4905 3.05747 4.4905H4.48097C4.58964 4.4905 4.68097 4.518 4.75497 4.573C4.82831 4.6285 4.86497 4.69712 4.86497 4.77887V6.5095H4.42297V5.875H3.11547V6.5095H2.67297ZM3.11547 5.54312H4.42297V4.822H3.11547V5.54312Z" fill="#142E6B"/>
</svg>
