<svg width="251" height="144" viewBox="0 0 251 144" fill="none" xmlns="http://www.w3.org/2000/svg">
<rect width="250.286" height="144" fill="#142E6B"/>
<path d="M113.279 58.3875L110.715 65.7143H139.571L137.007 58.3875C136.565 57.1304 135.377 56.2857 134.041 56.2857H116.245C114.909 56.2857 113.721 57.1304 113.279 58.3875ZM103.889 66.1857L107.346 56.3152C108.672 52.5339 112.237 50 116.245 50H134.041C138.048 50 141.613 52.5339 142.939 56.3152L146.396 66.1857C148.675 67.1286 150.286 69.3777 150.286 72V86.1429V90.8571C150.286 92.5955 148.881 94 147.143 94H144C142.262 94 140.857 92.5955 140.857 90.8571V86.1429H109.429V90.8571C109.429 92.5955 108.024 94 106.286 94H103.143C101.404 94 100 92.5955 100 90.8571V86.1429V72C100 69.3777 101.611 67.1286 103.889 66.1857ZM112.571 75.1429C112.571 74.3093 112.24 73.5099 111.651 72.9205C111.062 72.3311 110.262 72 109.429 72C108.595 72 107.796 72.3311 107.206 72.9205C106.617 73.5099 106.286 74.3093 106.286 75.1429C106.286 75.9764 106.617 76.7758 107.206 77.3652C107.796 77.9546 108.595 78.2857 109.429 78.2857C110.262 78.2857 111.062 77.9546 111.651 77.3652C112.24 76.7758 112.571 75.9764 112.571 75.1429ZM140.857 78.2857C141.691 78.2857 142.49 77.9546 143.079 77.3652C143.669 76.7758 144 75.9764 144 75.1429C144 74.3093 143.669 73.5099 143.079 72.9205C142.49 72.3311 141.691 72 140.857 72C140.024 72 139.224 72.3311 138.635 72.9205C138.045 73.5099 137.714 74.3093 137.714 75.1429C137.714 75.9764 138.045 76.7758 138.635 77.3652C139.224 77.9546 140.024 78.2857 140.857 78.2857Z" fill="#79A2D8"/>
</svg>
